<svg width="19" height="11" viewBox="0 0 19 11" fill="none" xmlns="http://www.w3.org/2000/svg">
<path id="Vector" d="M18.6099 2.22508L10.176 10.6161C10.0756 10.7157 9.96701 10.7863 9.85017 10.8278C9.73334 10.8693 9.60825 10.8895 9.47492 10.8883C9.34159 10.8878 9.21668 10.8666 9.10018 10.8248C8.98368 10.783 8.87563 10.7115 8.77604 10.6105L0.38509 2.15156C0.152699 1.91729 0.0372101 1.62516 0.0386219 1.27516C0.0400336 0.925163 0.166243 0.62567 0.417249 0.37668C0.668255 0.127691 0.960424 0.0038684 1.29375 0.00521294C1.62709 0.00655747 1.91825 0.132733 2.16723 0.383739L9.48753 7.76333L16.8671 0.443033C17.1014 0.210643 17.3895 0.0951373 17.7315 0.0965168C18.0735 0.0978963 18.3687 0.224088 18.617 0.475092C18.866 0.726098 18.9898 1.01827 18.9885 1.3516C18.9871 1.68493 18.8609 1.97609 18.6099 2.22508Z" fill="black"/>
</svg>
